<svg width="113" height="32" viewBox="0 0 113 32" fill="none" xmlns="http://www.w3.org/2000/svg">
<path fill-rule="evenodd" clip-rule="evenodd" d="M16.21 4.03009C10.26 4.44009 5.51 9.38009 5.32 15.3401C5.24 17.7501 5.89 20.0801 7.19 22.0801L4.25 28.0001C4.34 28.0001 11.52 26.0601 11.52 26.0601C13.21 26.9701 15.11 27.4401 17.04 27.4401C23.5 27.4401 28.76 22.1801 28.76 15.7201C28.76 9.26009 23.05 3.56009 16.21 4.03009ZM17.03 25.4001C15.32 25.4001 13.63 24.9401 12.16 24.0801C12 23.9901 11.79 23.8401 11.79 23.8401C11.79 23.8401 11.46 23.9501 11.37 23.9701L8.16 24.8501L9.53 21.8301C7.98 19.9201 7.22 17.5601 7.37 15.1001C7.66 10.3001 11.54 6.39009 16.34 6.06009C21.98 5.67009 26.7 10.1501 26.7 15.7101C26.7 21.2701 22.36 25.3901 17.02 25.3901L17.03 25.4001Z" fill="#F5F5F5"/>
<path fill-rule="evenodd" clip-rule="evenodd" d="M21.5398 17.4799C21.0498 17.1899 20.4098 16.8599 19.8298 17.0999C19.3898 17.2799 19.0998 17.9799 18.8198 18.3299C18.6698 18.5099 18.4998 18.5399 18.2698 18.4499C16.5998 17.7899 15.3298 16.6699 14.4098 15.1399C14.2498 14.8999 14.2798 14.7099 14.4698 14.4899C14.7498 14.1599 15.0998 13.7899 15.1698 13.3499C15.2498 12.9099 15.0398 12.3899 14.8598 11.9999C14.6298 11.4999 14.3698 10.7799 13.8698 10.4999C13.4098 10.2399 12.7998 10.3899 12.3898 10.7199C11.6798 11.2999 11.3398 12.1999 11.3498 13.0999C11.3498 13.3599 11.3798 13.6099 11.4398 13.8599C11.9398 15.9099 13.3498 17.6399 14.9998 18.8899C16.4198 19.9699 18.7698 21.4299 20.6398 21.0799C21.5498 20.9099 22.4398 20.3499 22.7998 19.4699C22.9098 19.2099 22.9598 18.9199 22.8998 18.6499C22.7798 18.0899 22.0098 17.7499 21.5498 17.4799H21.5398Z" fill="#F5F5F5"/>
<path d="M62.8099 8.41992C62.0299 8.41992 61.3999 9.04992 61.3999 9.82992C61.3999 10.6099 62.0299 11.2399 62.8099 11.2399C63.5899 11.2399 64.2199 10.6099 64.2199 9.82992C64.2199 9.04992 63.5899 8.41992 62.8099 8.41992Z" fill="#F5F5F5"/>
<path d="M56.54 9.75C53.09 9.75 50.29 12.55 50.29 16C50.29 19.45 53.09 22.25 56.54 22.25C59.99 22.25 62.79 19.45 62.79 16C62.79 12.55 59.99 9.75 56.54 9.75ZM56.54 20.01C54.33 20.01 52.54 18.21 52.54 16.01C52.54 13.81 54.34 12.01 56.54 12.01C58.74 12.01 60.54 13.81 60.54 16.01C60.54 18.21 58.74 20.01 56.54 20.01Z" fill="#F5F5F5"/>
<path d="M61.27 4H51.73C47.74 4 44.5 7.24 44.5 11.23V20.77C44.5 24.76 47.74 28 51.73 28H61.27C65.26 28 68.5 24.76 68.5 20.77V11.23C68.5 7.24 65.26 4 61.27 4ZM66.24 20.77C66.24 23.51 64.02 25.73 61.27 25.73H51.73C48.99 25.73 46.76 23.51 46.76 20.77V11.23C46.76 8.49 48.98 6.27 51.73 6.27H61.27C64.01 6.27 66.24 8.49 66.24 11.23V20.77Z" fill="#F5F5F5"/>
<path fill-rule="evenodd" clip-rule="evenodd" d="M110.98 6.85002C110.05 7.27002 109.03 7.52002 108.03 7.69002C108.5 7.61002 109.21 6.75002 109.48 6.40002C109.91 5.87002 110.26 5.27002 110.46 4.61002C110.49 4.56002 110.5 4.49002 110.46 4.46002C110.4 4.43002 110.35 4.45002 110.3 4.47002C109.18 5.07002 108.03 5.50002 106.8 5.81002C106.7 5.84002 106.62 5.81002 106.56 5.75002C106.46 5.64002 106.36 5.53002 106.25 5.44002C105.01 4.38002 103.42 3.90002 101.85 4.01002C101.85 4.01002 101.86 4.01002 101.87 4.01002H101.75C101.75 4.01002 101.78 4.01002 101.79 4.02002C100.92 4.09002 100.06 4.34002 99.2701 4.79002C96.9701 6.09002 95.8601 8.64002 96.2401 11.2C96.2601 11.34 96.2401 11.36 96.1201 11.34C91.3101 10.62 87.3201 8.90002 84.0901 5.21002C83.9501 5.05002 83.8701 5.05002 83.7601 5.22002C82.3401 7.34002 83.0301 10.75 84.8001 12.43C85.0401 12.65 85.2801 12.88 85.5401 13.08C85.4401 13.1 84.2701 12.97 83.2201 12.43C83.0801 12.34 83.0101 12.39 83.0001 12.55C82.9901 12.78 83.0001 12.99 83.0401 13.24C83.3101 15.39 84.8001 17.38 86.8401 18.16C87.0801 18.26 87.3501 18.35 87.6101 18.4C87.1501 18.5 86.6701 18.57 85.3301 18.47C85.1601 18.44 85.1001 18.52 85.1601 18.68C86.1601 21.41 88.3301 22.22 89.9501 22.69C90.1701 22.73 90.3801 22.73 90.6001 22.78C90.5901 22.8 90.5701 22.8 90.5601 22.82C90.0201 23.64 88.1601 24.25 87.2901 24.55C85.7101 25.1 83.9901 25.35 82.3301 25.19C82.0601 25.15 82.0101 25.15 81.9301 25.19C81.8601 25.24 81.9301 25.3 82.0101 25.37C82.3501 25.59 82.6901 25.79 83.0401 25.98C84.1001 26.54 85.2001 26.99 86.3601 27.31C93.0701 29.16 100.45 27.28 104.76 21.65C107.29 18.35 108.27 14.27 108.27 10.17C108.27 9.98002 108.49 9.88002 108.63 9.78002C109.54 9.09002 110.27 8.27002 110.95 7.35002C111.1 7.14002 111.09 6.96002 111.09 6.88002V6.85002C111.09 6.77002 111.09 6.80002 110.98 6.85002Z" fill="#F5F5F5"/>
</svg>
